
<!-- Luno -->
   <svg width="120" height="38" fill="none" xmlns="http://www.w3.org/2000/svg" class="bright-logo ng-star-inserted">
                                                <path _ngcontent-serverApp-c2860459487="" id="text" d="m105.841 17.762.016-.014ZM73.032 9.241h-.812a1.081 1.081 0 0 0-1.081 1.082V20.39c-.031 2.963-2.36 5.114-5.544 5.114h-.013c-3.243 0-5.53-2.221-5.558-5.4v-9.783a1.081 1.081 0 0 0-1.08-1.078h-.817a1.081 1.081 0 0 0-1.079 1.08v9.915c0 2.502.847 4.602 2.449 6.078 1.425 1.306 3.433 2.07 5.659 2.146h.662c2.272-.037 4.326-.785 5.786-2.104 1.633-1.474 2.515-3.594 2.515-6.127v-9.91a1.084 1.084 0 0 0-1.087-1.08ZM52.1 25.304h-4.026c-3.22 0-5.494-2.23-5.529-5.398v-9.581a1.083 1.083 0 0 0-1.08-1.081h-.813a1.083 1.083 0 0 0-1.08 1.08v9.708c0 2.532.866 4.652 2.503 6.128 1.46 1.324 3.517 2.067 5.791 2.105H52.1a1.083 1.083 0 0 0 1.08-1.081v-.81a1.086 1.086 0 0 0-1.08-1.08v.01ZM117.335 11.953a9.601 9.601 0 0 0-7.015-2.888 9.57 9.57 0 0 0-9.727 9.707v.05a9.506 9.506 0 0 0 5.953 8.97 9.504 9.504 0 0 0 3.727.687h.113a9.588 9.588 0 0 0 9.621-9.707v-.049a9.668 9.668 0 0 0-2.672-6.77Zm-.404 6.819v.053c0 3.902-2.839 6.839-6.605 6.839a6.511 6.511 0 0 1-4.765-2.014 7.014 7.014 0 0 1-1.88-4.878v-.05c0-3.904 2.84-6.84 6.603-6.84h.06a6.513 6.513 0 0 1 4.701 2.014 6.997 6.997 0 0 1 1.886 4.876ZM93.807 11.205c-1.428-1.306-3.433-2.07-5.659-2.147h-.662c-2.272.038-4.328.786-5.787 2.105-1.639 1.476-2.504 3.596-2.504 6.126v9.91a1.081 1.081 0 0 0 1.08 1.081h.811a1.081 1.081 0 0 0 1.081-1.08V17.132c.031-2.963 2.36-5.114 5.542-5.114h.015c3.243 0 5.527 2.222 5.558 5.4v9.78a1.07 1.07 0 0 0 .669 1c.131.054.272.082.414.081h.814a1.08 1.08 0 0 0 1.079-1.08v-9.917c-.002-2.502-.85-4.602-2.451-6.078Z"></path>
                                                <path _ngcontent-serverApp-c2860459487="" id="fourth-layer" d="M14.25 9.045a14.25 14.25 0 1 0-.005 28.498 14.25 14.25 0 0 0 .004-28.498Zm0 24.47a10.223 10.223 0 1 1 .016-20.445 10.223 10.223 0 0 1-.017 20.445Z"></path>
                                                <path _ngcontent-serverApp-c2860459487="" id="third-layer" d="M14.25 6.032a14.25 14.25 0 1 0-.005 28.498 14.25 14.25 0 0 0 .004-28.498Zm0 24.47a10.223 10.223 0 1 1 .017-20.446 10.223 10.223 0 0 1-.018 20.446Z"></path>
                                                <path _ngcontent-serverApp-c2860459487="" id="second-layer" d="M14.25 3.016a14.25 14.25 0 1 0-.005 28.498 14.25 14.25 0 0 0 .004-28.498Zm0 24.47a10.224 10.224 0 1 1 .017-20.447 10.224 10.224 0 0 1-.018 20.447Z"></path>
                                                <path _ngcontent-serverApp-c2860459487="" id="first-layer" d="M14.25 0a14.25 14.25 0 1 0-.005 28.499A14.25 14.25 0 0 0 14.249 0Zm0 24.473a10.224 10.224 0 1 1 .018-20.448 10.224 10.224 0 0 1-.019 20.448Z"></path>
                                            </svg>

