<!-- Jembi -->
<svg id="jembi" preserveAspectRatio="xMidYMid meet" data-bbox="-0.019 0.002 416.263 120.865" viewBox="0 0 416.24 120.84" xmlns="http://www.w3.org/2000/svg" data-type="ugc" role="img" aria-label="Jembi Logo">
    <g>
        <defs>
            <linearGradient gradientUnits="userSpaceOnUse" y2="13.3" x2="89.08" y1="110.38" x1="33.03" id="bdb9865b-c10c-4193-999b-abad4bc59d17_comp-j9o0biy5">
                <stop stop-color="#007f68" offset="0"/>
                <stop stop-color="#63f96f" offset="1"/>
            </linearGradient>
        </defs>
        <g>
            <g>
                <path d="M171.45 83.52q0 8.81-3 14.65a24.6 24.6 0 0 1-8 9.32 52.83 52.83 0 0 1-12.35 6.05l-6.1-13.22a35.93 35.93 0 0 0 6.25-3.64 12.17 12.17 0 0 0 3.63-4.68 17.56 17.56 0 0 0 1.33-7.38V36h18.24zm-1.58-74.09a9.7 9.7 0 0 1 2.92 7.18 9.67 9.67 0 0 1-2.92 7.17 11.33 11.33 0 0 1-15.07 0 9.67 9.67 0 0 1-2.92-7.17 9.7 9.7 0 0 1 2.92-7.18 11.33 11.33 0 0 1 15.07 0z" fill="#ffffff"/>
                <path d="M233.86 68.56h-33.41q.72 6.24 3.54 8.55c1.87 1.54 4.56 2.31 8 2.31a16.82 16.82 0 0 0 6.1-1.18 34 34 0 0 0 6.61-3.64l7.37 10a34.29 34.29 0 0 1-9.83 5.69 33.54 33.54 0 0 1-12 2.1q-13.93 0-21.16-7.84t-7.22-21.06a35.69 35.69 0 0 1 3-15 24.32 24.32 0 0 1 9-10.56 25.66 25.66 0 0 1 14.35-3.89q12 0 19 7.43t7 20.85q-.05.68-.35 6.24zm-17.63-11.28q-.1-5.43-1.84-8.4t-5.84-3a6.65 6.65 0 0 0-5.74 2.67q-2 2.66-2.46 9.32h15.88z" fill="#ffffff"/>
                <path d="M316.24 38.48q3.88 4.37 3.89 12v40.11h-18.24V53.8q0-6.34-3.69-6.35c-2.52 0-4.85 2.08-7 6.25v36.89H273V53.8q0-6.34-3.69-6.35t-7 6.25v36.89H244.1V36H260l1.31 6a21.44 21.44 0 0 1 7-6 19.5 19.5 0 0 1 8.87-1.94 13.75 13.75 0 0 1 7.58 2.1 12.76 12.76 0 0 1 4.92 6.09 22.87 22.87 0 0 1 7.32-6.12 19.4 19.4 0 0 1 9-2 13.1 13.1 0 0 1 10.24 4.35z" fill="#ffffff"/>
                <path d="M380.58 41.81q5.24 7.68 5.23 21.52a40.62 40.62 0 0 1-2.61 15 23.5 23.5 0 0 1-7.54 10.35A18.74 18.74 0 0 1 364 92.43a18.22 18.22 0 0 1-8.14-1.79 16.83 16.83 0 0 1-6.1-5.08l-.72 5h-16.21V14.45l18.24-1.84V41.3a16.8 16.8 0 0 1 6.25-5.23 18.44 18.44 0 0 1 8.3-1.94q9.74 0 14.96 7.68zm-15.83 33.82q2.25-3.69 2.25-12.3 0-9.22-2-12.6a6.28 6.28 0 0 0-5.69-3.39q-4.81 0-8.2 5.74V74.7q2.78 4.62 7.48 4.61a6.88 6.88 0 0 0 6.16-3.68z" fill="#ffffff"/>
                <path d="M413.32 9.43a9.66 9.66 0 0 1 2.92 7.18 9.64 9.64 0 0 1-2.92 7.17 11.31 11.31 0 0 1-15.06 0 9.64 9.64 0 0 1-2.92-7.17 9.66 9.66 0 0 1 2.92-7.18 11.31 11.31 0 0 1 15.06 0zM414.91 36v54.59h-18.24V36z" fill="#ffffff"/>
                <path d="M92.78 77c2.36-2.6 2.52-6.78.45-9.19s-5.11-2.09-6.93.58-2.19 6.57-.67 8.91 4.78 2.33 7.15-.3zm23.91 10.2c-2.66-6.74-16.85-4.25-32.43 3S59.15 108.67 63.1 116s18.42 6.1 32.67-1.8 23.57-20.2 20.92-26.97zm-51.9-43.29c-15.67-7.36-39.34-1.76-54.18 11.75S-3.62 88.18 13 98.78s42.12 6 56.07-10.73 11.37-36.78-4.28-44.14zM36.35 11.32c-.92 8.68 10.13 17.76 23.18 23.3s25.21 4.21 28.41-5.33S82.33 6.3 67 1.66s-29.74 1.06-30.65 9.66zm58.78 25.11c-4.32 7.73-2.32 20 4 28.07s16.07 8.44 22.09.33 4.6-21.27-3.45-29-18.32-7.13-22.64.6zM14.6 19.9c-6.27 2.59-10 9.76-8.38 15.67s7.21 7.85 12.59 4.7 9.24-9.68 8.51-15-6.46-7.97-12.72-5.37z" fill="url(#bdb9865b-c10c-4193-999b-abad4bc59d17_comp-j9o0biy5)"/>
            </g>
        </g>
    </g>
</svg>
